Coordinates
version=1
nRows=5
nColumns=42
inDegrees=yes

Units are S.I. units (second, meters, Newtons, ...)
If the header above contains a line with 'inDegrees', this indicates whether rotational values are in degrees (yes) or radians (no).

endheader
time	pelvis_tilt	pelvis_list	pelvis_rotation	pelvis_tx	pelvis_ty	pelvis_tz	hip_flexion_r	hip_adduction_r	hip_rotation_r	knee_angle_r	knee_adduction_r	knee_angle_r_beta	ankle_angle_r	subtalar_angle_r	mtp_angle_r	hip_flexion_l	hip_adduction_l	hip_rotation_l	knee_angle_l	knee_adduction_l	knee_angle_l_beta	ankle_angle_l	subtalar_angle_l	mtp_angle_l	lumbar_extension	lumbar_bending	lumbar_rotation	arm_flex_r	arm_add_r	arm_rot_r	elbow_flex_r	pro_sup_r	wrist_flex_r	wrist_dev_r	arm_flex_l	arm_add_l	arm_rot_l	elbow_flex_l	pro_sup_l	wrist_flex_l	wrist_dev_l
      0.97000000	     -5.79211280	      1.67020497	      0.81522175	     -0.67839622	      0.93206677	     -0.08653605	     -7.40838496	      1.90497949	     -6.52313455	     33.04773118	     -2.62947503	      0.57679172	      3.07060725	     -6.89924491	     -7.59463707	     27.58866772	      4.64272797	      9.79111228	     21.11373158	      3.89719213	      0.36850413	     -0.67606464	    -13.26919459	     -7.59463707	     -7.12292080	     -8.08757374	      2.36784275	      2.40654977	     -8.37076852	     -7.52279434	     25.42970013	     90.00000001	      0.00000000	      0.00000000	     -8.92370353	    -10.33385159	    -23.29216003	     16.28253992	     90.00000001	      0.00000000	      0.00000000
      0.98000000	     -5.63446576	      1.68313998	      0.92524523	     -0.66637450	      0.93496808	     -0.08763521	     -5.76639104	      1.59364347	     -7.16915542	     36.72945158	     -3.03063936	      0.64104986	      2.02939275	     -8.35155985	     -7.59315860	     26.21486192	      4.81071290	      9.54836043	     20.44909646	      3.64335776	      0.35690406	      0.23159877	    -12.53562963	     -7.59315860	     -7.30726987	     -8.05911004	      2.05738491	      2.05321104	     -8.09079623	     -7.29621251	     24.56574627	     90.00000001	      0.00000000	      0.00000000	     -8.46860475	    -10.30575053	    -23.03024639	     16.75207144	     90.00000001	      0.00000000	      0.00000000
      0.99000000	     -5.83598851	      1.69186683	      0.97863964	     -0.65475818	      0.93727925	     -0.08874964	     -3.52782529	      1.17170146	     -7.66570725	     40.60413288	     -3.26891806	      0.70867581	      1.50360233	    -10.13452314	     -7.59040241	     25.35776987	      5.03798944	      9.16913060	     19.98874315	      3.20740845	      0.34886938	      1.06312649	    -11.40467569	     -7.59040241	     -7.06780123	     -8.01616354	      1.84928596	      1.59903705	     -7.83415461	     -7.08806918	     23.76846728	     90.00000001	      0.00000000	      0.00000000	     -8.09748226	    -10.29797930	    -22.39572765	     17.38644222	     90.00000001	      0.00000000	      0.00000000
      1.00000000	     -6.00946585	      1.56481301	      1.05110311	     -0.64331896	      0.93964586	     -0.08970528	     -1.35437203	      0.95839383	     -7.93538831	     44.12412212	     -3.45044155	      0.77011121	      1.16461760	    -12.22522992	     -7.58629015	     24.51508853	      5.01570412	      8.87913227	     19.57010633	      2.99600250	      0.34156279	      1.76688586	    -10.63586181	     -7.58629015	     -6.86168196	     -7.80429282	      1.60104100	      1.17083645	     -7.57354984	     -6.99178071	     23.05324272	     90.00000001	      0.00000000	      0.00000000	     -7.78979794	    -10.33532375	    -21.34223247	     18.14993131	     90.00000001	      0.00000000	      0.00000000
      1.01000000	     -5.50717720	      1.14228229	      1.30773491	     -0.63161579	      0.94304510	     -0.09089844	     -0.23610723	      1.16635250	     -8.56706614	     46.65790358	     -3.79919273	      0.81433404	      1.33741039	    -12.87880048	     -7.58524822	     22.86407186	      4.71125461	      8.82402687	     19.08695450	      2.83220825	      0.33313020	      2.34063813	    -10.12766229	     -7.58524822	     -7.46775659	     -7.18321904	      1.11830278	      0.82554193	     -7.42077534	     -6.87577163	     22.54695159	     90.00000001	      0.00000000	      0.00000000	     -7.14716427	    -10.21936343	    -21.06398962	     18.63067237	     90.00000001	      0.00000000	      0.00000000
